# xmcd
#
# Track frame offsets:
# 183
# 11960
# 22930
# 33408
# 43673
# 58840
# 71790
# 85743
# 95770
# 109095
# 122523
# 133843
# 145670
# 156010
# 167303
# 178375
# 190860
#
# Disc length: 2646 seconds
#
#
# Revision: 0
# Processed by: cddbd v1.5.1PL2 Copyright (c) Steve Scherf et al.
# Submitted via: FreeRIP 2.60 
#
DISCID=e90a5411
DTITLE=Various Artist - Giants of Country-Vol 5
DYEAR=1980
DGENRE=Country
TTITLE0=Johnny Cash-I'll Walk The Line
TTITLE1=George Jones-I'll Walk The Line
TTITLE2=Lynn Anderson-Heartbreak Hotel
TTITLE3=Conway Twitty-Born To Sing The Country Blues
TTITLE4=Judy Stone-Welcome Home
TTITLE5=B J Thomas-Raindrops Keep Falling On My Head
TTITLE6=Burl Ives-Comin' After Jenny
TTITLE7=Faron Young-If You Aint Lovin'
TTITLE8=Gene Pitney-Man Who Shot Liberty Valance
TTITLE9=Marty Robbins-All Around Cowboy
TTITLE10=Hank Locklin-Send Me The Pillow That You Dream On
TTITLE11=Patsy Cline-Walking After Midnight
TTITLE12=Granpa Jones-T For Texas
TTITLE13=Billy J Kramer-Gotta Travel On
TTITLE14=Anne Murray-Last Thing On My Mind
TTITLE15=Billy Walker-Sundown Mary
TTITLE16=Willie Nelson-You Wouldn't Cross The Street To Say Goodbye
EXTD=
EXTT0=
EXTT1=
EXTT2=
EXTT3=
EXTT4=
EXTT5=
EXTT6=
EXTT7=
EXTT8=
EXTT9=
EXTT10=
EXTT11=
EXTT12=
EXTT13=
EXTT14=
EXTT15=
EXTT16=
PLAYORDER=
